<svg width="39" height="10" viewBox="0 0 39 10" fill="none" xmlns="http://www.w3.org/2000/svg">
<path d="M4.01695 9C5.81578 9 6.88219 8.11523 6.88219 6.62695C6.88219 5.50195 6.14391 4.69336 4.99547 4.54688V4.5C5.80992 4.35352 6.45445 3.5332 6.45445 2.6543C6.45445 1.38867 5.47594 0.544922 4.02867 0.544922H0.823593V9H4.01695ZM1.87828 1.47656H3.78844C4.81383 1.47656 5.38805 1.93945 5.38805 2.77734C5.38805 3.69141 4.70836 4.18945 3.46031 4.18945H1.87828V1.47656ZM1.87828 8.06836V5.09766H3.75914C5.1068 5.09766 5.7982 5.5957 5.7982 6.57422C5.7982 7.55273 5.13023 8.06836 3.85875 8.06836H1.87828ZM8.09203 9H9.11156V2.90625H8.09203V9ZM8.6018 1.88086C8.95336 1.88086 9.24047 1.59375 9.24047 1.24805C9.24047 0.896484 8.95336 0.615234 8.6018 0.615234C8.25609 0.615234 7.96898 0.896484 7.96898 1.24805C7.96898 1.59375 8.25609 1.88086 8.6018 1.88086ZM13.1339 9.10547C14.8155 9.10547 15.9523 7.89258 15.9523 5.95312C15.9523 4.00781 14.8155 2.80078 13.1339 2.80078C11.4464 2.80078 10.3097 4.00781 10.3097 5.95312C10.3097 7.89258 11.4464 9.10547 13.1339 9.10547ZM13.1339 8.20898C12.0558 8.20898 11.3468 7.38867 11.3468 5.95312C11.3468 4.51758 12.0558 3.69727 13.1339 3.69727C14.212 3.69727 14.9152 4.51758 14.9152 5.95312C14.9152 7.38867 14.212 8.20898 13.1339 8.20898ZM19.4121 9.10547C20.291 9.10547 20.9883 8.67188 21.3809 7.96875H21.3984V9H22.3711V0.544922H21.3516V3.89648H21.3281C20.9648 3.22852 20.2617 2.80078 19.3887 2.80078C17.8535 2.80078 16.8047 4.04297 16.8047 5.95312C16.8047 7.86328 17.8594 9.10547 19.4121 9.10547ZM19.6055 3.69727C20.6543 3.69727 21.3574 4.59375 21.3574 5.95312C21.3574 7.31836 20.6543 8.20898 19.6055 8.20898C18.5273 8.20898 17.8477 7.33594 17.8477 5.95312C17.8477 4.57617 18.5273 3.69727 19.6055 3.69727ZM25.8778 8.23828C25.1454 8.23828 24.6591 7.85742 24.6591 7.27734C24.6591 6.70312 25.1278 6.33984 25.9481 6.28711L27.577 6.1875V6.68555C27.577 7.56445 26.8387 8.23828 25.8778 8.23828ZM25.6493 9.10547C26.4696 9.10547 27.243 8.64844 27.6063 7.95117H27.6298V9H28.5966V4.78711C28.5966 3.57422 27.6942 2.80078 26.2645 2.80078C24.8231 2.80078 23.9208 3.60938 23.8505 4.66406H24.8348C24.9637 4.06641 25.4559 3.69727 26.2411 3.69727C27.0848 3.69727 27.577 4.14258 27.577 4.88672V5.39648L25.8309 5.49609C24.4247 5.57812 23.622 6.23438 23.622 7.27734C23.622 8.37305 24.4364 9.10547 25.6493 9.10547ZM30.3396 1.43555V2.90625H29.4314V3.74414H30.3396V7.41797C30.3396 8.58984 30.7732 9.04688 31.8923 9.04688C32.1326 9.04688 32.4138 9.0293 32.5369 9V8.14453C32.4666 8.15625 32.2322 8.17383 32.115 8.17383C31.5935 8.17383 31.3591 7.92188 31.3591 7.36523V3.74414H32.5427V2.90625H31.3591V1.43555H30.3396ZM35.6452 8.23828C34.9127 8.23828 34.4264 7.85742 34.4264 7.27734C34.4264 6.70312 34.8952 6.33984 35.7155 6.28711L37.3444 6.1875V6.68555C37.3444 7.56445 36.6061 8.23828 35.6452 8.23828ZM35.4166 9.10547C36.237 9.10547 37.0104 8.64844 37.3737 7.95117H37.3971V9H38.3639V4.78711C38.3639 3.57422 37.4616 2.80078 36.0319 2.80078C34.5905 2.80078 33.6881 3.60938 33.6178 4.66406H34.6022C34.7311 4.06641 35.2233 3.69727 36.0084 3.69727C36.8522 3.69727 37.3444 4.14258 37.3444 4.88672V5.39648L35.5983 5.49609C34.192 5.57812 33.3893 6.23438 33.3893 7.27734C33.3893 8.37305 34.2038 9.10547 35.4166 9.10547Z" fill="#3366FF"/>
</svg>
