<svg width="42" height="42" viewBox="0 0 42 42" fill="none" xmlns="http://www.w3.org/2000/svg">
<circle cx="21" cy="21" r="20.5" stroke="#D1D5DB"/>
<path d="M21.2752 28.7831C20.3669 28.7831 19.4585 28.4415 18.7669 27.7498C17.3835 26.3665 17.3835 24.1248 18.7669 22.7415L20.8335 20.6831C21.0752 20.4415 21.4752 20.4415 21.7169 20.6831C21.9585 20.9248 21.9585 21.3248 21.7169 21.5665L19.6502 23.6248C18.7585 24.5165 18.7585 25.9748 19.6502 26.8665C20.5419 27.7581 22.0002 27.7581 22.8919 26.8665L26.1335 23.6248C27.1169 22.6415 27.6585 21.3331 27.6585 19.9415C27.6585 18.5498 27.1169 17.2415 26.1335 16.2581C24.1002 14.2248 20.8002 14.2248 18.7669 16.2581L15.2335 19.7915C14.4085 20.6165 13.9502 21.7165 13.9502 22.8831C13.9502 24.0498 14.4085 25.1498 15.2335 25.9748C15.4752 26.2165 15.4752 26.6165 15.2335 26.8581C14.9919 27.0998 14.5919 27.0998 14.3502 26.8581C13.2919 25.7915 12.7002 24.3831 12.7002 22.8831C12.7002 21.3831 13.2835 19.9665 14.3502 18.9081L17.8835 15.3748C20.4002 12.8581 24.5002 12.8581 27.0169 15.3748C28.2335 16.5915 28.9085 18.2165 28.9085 19.9415C28.9085 21.6665 28.2335 23.2915 27.0169 24.5081L23.7752 27.7498C23.0835 28.4415 22.1835 28.7831 21.2752 28.7831Z" fill="#292D32"/>
</svg>
