<svg width="65" height="12" viewBox="0 0 65 12" fill="none" xmlns="http://www.w3.org/2000/svg">
<path d="M4.0607 9V1.49414H6.72672V0.544922H0.34V1.49414H3.00602V9H4.0607ZM6.89945 11.2793C8.00102 11.2793 8.50492 10.8516 9.02641 9.42773L11.4229 2.90625H10.3506L8.66313 7.98047H8.64555L6.95805 2.90625H5.8682L8.1182 9.00586L7.97758 9.43359C7.7432 10.1426 7.4268 10.418 6.85844 10.418C6.72953 10.418 6.57133 10.4121 6.46 10.3887V11.2441C6.57133 11.2676 6.77641 11.2793 6.89945 11.2793ZM15.3105 2.80078C14.4257 2.80078 13.7167 3.25195 13.3417 3.9375H13.3183V2.90625H12.3515V11.0332H13.371V8.00977H13.3945C13.7577 8.67773 14.4609 9.10547 15.3339 9.10547C16.8691 9.10547 17.9179 7.86328 17.9179 5.95312C17.9179 4.04297 16.8632 2.80078 15.3105 2.80078ZM15.1112 8.20898C14.0683 8.20898 13.3652 7.3125 13.3652 5.95312C13.3652 4.59961 14.0683 3.69727 15.1112 3.69727C16.1952 3.69727 16.8749 4.57617 16.8749 5.95312C16.8749 7.33594 16.1952 8.20898 15.1112 8.20898ZM21.5125 3.68555C22.4734 3.68555 23.1121 4.41211 23.1355 5.43164H19.825C19.8895 4.41797 20.5574 3.68555 21.5125 3.68555ZM23.1121 7.25391C22.9422 7.82812 22.3738 8.2207 21.6004 8.2207C20.5047 8.2207 19.8191 7.45312 19.8191 6.28711V6.22852H24.1902V5.8418C24.1902 3.99609 23.1766 2.80078 21.5301 2.80078C19.8484 2.80078 18.7703 4.08398 18.7703 5.97656C18.7703 7.89258 19.8309 9.10547 21.577 9.10547C22.907 9.10547 23.9383 8.32031 24.1141 7.25391H23.1121ZM30.4478 9.10547C32.1295 9.10547 33.2662 7.89258 33.2662 5.95312C33.2662 4.00781 32.1295 2.80078 30.4478 2.80078C28.7603 2.80078 27.6236 4.00781 27.6236 5.95312C27.6236 7.89258 28.7603 9.10547 30.4478 9.10547ZM30.4478 8.20898C29.3697 8.20898 28.6607 7.38867 28.6607 5.95312C28.6607 4.51758 29.3697 3.69727 30.4478 3.69727C31.5259 3.69727 32.2291 4.51758 32.2291 5.95312C32.2291 7.38867 31.5259 8.20898 30.4478 8.20898ZM34.7455 9H35.7651V3.74414H37.0073V2.90625H35.7592V2.23242C35.7592 1.62891 36.0229 1.33594 36.5737 1.33594C36.7436 1.33594 36.9135 1.35352 37.0366 1.37109V0.544922C36.8901 0.521484 36.644 0.498047 36.4155 0.498047C35.2905 0.498047 34.7455 1.05469 34.7455 2.22656V2.90625H33.8959V3.74414H34.7455V9ZM48.5148 2.90625H47.507L46.2883 7.86328H46.2648L44.882 2.90625H43.8977L42.5207 7.86328H42.4973L41.2785 2.90625H40.2648L41.9699 9H43.007L44.3781 4.2832H44.4016L45.7785 9H46.8156L48.5148 2.90625ZM51.9981 9.10547C53.6798 9.10547 54.8165 7.89258 54.8165 5.95312C54.8165 4.00781 53.6798 2.80078 51.9981 2.80078C50.3106 2.80078 49.1739 4.00781 49.1739 5.95312C49.1739 7.89258 50.3106 9.10547 51.9981 9.10547ZM51.9981 8.20898C50.92 8.20898 50.211 7.38867 50.211 5.95312C50.211 4.51758 50.92 3.69727 51.9981 3.69727C53.0763 3.69727 53.7794 4.51758 53.7794 5.95312C53.7794 7.38867 53.0763 8.20898 51.9981 8.20898ZM55.9677 9H56.9873V5.20312C56.9873 4.3418 57.5029 3.77344 58.2939 3.77344C58.54 3.77344 58.7568 3.80273 58.8388 3.83203V2.8418C58.7568 2.83008 58.6045 2.80078 58.4287 2.80078C57.7138 2.80078 57.1513 3.22852 56.9521 3.90234H56.9287V2.90625H55.9677V9ZM60.8631 5.61328V0.544922H59.8436V9H60.8631V6.70312L61.4315 6.16406L63.6932 9H64.8768L62.1522 5.53711L64.7948 2.90625H63.5584L60.8631 5.61328Z" fill="#111827"/>
</svg>
