<svg width="82" height="12" viewBox="0 0 82 12" fill="none" xmlns="http://www.w3.org/2000/svg">
<path d="M1.37344 0.544922H0.318748V6.03516C0.318748 7.83984 1.57851 9.14062 3.67617 9.14062C5.77383 9.14062 7.03359 7.83984 7.03359 6.03516V0.544922H5.9789V5.96484C5.9789 7.24219 5.14101 8.16797 3.67617 8.16797C2.21133 8.16797 1.37344 7.24219 1.37344 5.96484V0.544922ZM11.595 2.80078C10.7102 2.80078 10.0012 3.25195 9.62625 3.9375H9.60281V2.90625H8.63601V11.0332H9.65555V8.00977H9.67898C10.0423 8.67773 10.7454 9.10547 11.6184 9.10547C13.1536 9.10547 14.2024 7.86328 14.2024 5.95312C14.2024 4.04297 13.1477 2.80078 11.595 2.80078ZM11.3958 8.20898C10.3528 8.20898 9.64969 7.3125 9.64969 5.95312C9.64969 4.59961 10.3528 3.69727 11.3958 3.69727C12.4798 3.69727 13.1595 4.57617 13.1595 5.95312C13.1595 7.33594 12.4798 8.20898 11.3958 8.20898ZM15.4064 9H16.4259V0.544922H15.4064V9ZM20.4483 9.10547C22.1299 9.10547 23.2666 7.89258 23.2666 5.95312C23.2666 4.00781 22.1299 2.80078 20.4483 2.80078C18.7608 2.80078 17.6241 4.00781 17.6241 5.95312C17.6241 7.89258 18.7608 9.10547 20.4483 9.10547ZM20.4483 8.20898C19.3702 8.20898 18.6612 7.38867 18.6612 5.95312C18.6612 4.51758 19.3702 3.69727 20.4483 3.69727C21.5264 3.69727 22.2295 4.51758 22.2295 5.95312C22.2295 7.38867 21.5264 8.20898 20.4483 8.20898ZM26.4277 8.23828C25.6952 8.23828 25.2089 7.85742 25.2089 7.27734C25.2089 6.70312 25.6777 6.33984 26.498 6.28711L28.1269 6.1875V6.68555C28.1269 7.56445 27.3886 8.23828 26.4277 8.23828ZM26.1991 9.10547C27.0195 9.10547 27.7929 8.64844 28.1562 7.95117H28.1796V9H29.1464V4.78711C29.1464 3.57422 28.2441 2.80078 26.8144 2.80078C25.373 2.80078 24.4706 3.60938 24.4003 4.66406H25.3847C25.5136 4.06641 26.0058 3.69727 26.7909 3.69727C27.6347 3.69727 28.1269 4.14258 28.1269 4.88672V5.39648L26.3808 5.49609C24.9745 5.57812 24.1718 6.23438 24.1718 7.27734C24.1718 8.37305 24.9862 9.10547 26.1991 9.10547ZM32.8699 9.10547C33.7488 9.10547 34.4461 8.67188 34.8387 7.96875H34.8562V9H35.8289V0.544922H34.8094V3.89648H34.7859C34.4227 3.22852 33.7195 2.80078 32.8465 2.80078C31.3113 2.80078 30.2625 4.04297 30.2625 5.95312C30.2625 7.86328 31.3172 9.10547 32.8699 9.10547ZM33.0633 3.69727C34.1121 3.69727 34.8152 4.59375 34.8152 5.95312C34.8152 7.31836 34.1121 8.20898 33.0633 8.20898C31.9852 8.20898 31.3055 7.33594 31.3055 5.95312C31.3055 4.57617 31.9852 3.69727 33.0633 3.69727ZM42.8658 2.80078C41.981 2.80078 41.272 3.25195 40.897 3.9375H40.8736V2.90625H39.9068V11.0332H40.9263V8.00977H40.9498C41.313 8.67773 42.0162 9.10547 42.8892 9.10547C44.4244 9.10547 45.4732 7.86328 45.4732 5.95312C45.4732 4.04297 44.4185 2.80078 42.8658 2.80078ZM42.6666 8.20898C41.6236 8.20898 40.9205 7.3125 40.9205 5.95312C40.9205 4.59961 41.6236 3.69727 42.6666 3.69727C43.7505 3.69727 44.4302 4.57617 44.4302 5.95312C44.4302 7.33594 43.7505 8.20898 42.6666 8.20898ZM49.1498 9.10547C50.8315 9.10547 51.9682 7.89258 51.9682 5.95312C51.9682 4.00781 50.8315 2.80078 49.1498 2.80078C47.4623 2.80078 46.3256 4.00781 46.3256 5.95312C46.3256 7.89258 47.4623 9.10547 49.1498 9.10547ZM49.1498 8.20898C48.0717 8.20898 47.3627 7.38867 47.3627 5.95312C47.3627 4.51758 48.0717 3.69727 49.1498 3.69727C50.228 3.69727 50.9311 4.51758 50.9311 5.95312C50.9311 7.38867 50.228 8.20898 49.1498 8.20898ZM53.1195 9H54.139V5.20312C54.139 4.3418 54.6546 3.77344 55.4456 3.77344C55.6917 3.77344 55.9085 3.80273 55.9905 3.83203V2.8418C55.9085 2.83008 55.7562 2.80078 55.5804 2.80078C54.8655 2.80078 54.303 3.22852 54.1038 3.90234H54.0804V2.90625H53.1195V9ZM57.2707 1.43555V2.90625H56.3625V3.74414H57.2707V7.41797C57.2707 8.58984 57.7043 9.04688 58.8234 9.04688C59.0637 9.04688 59.3449 9.0293 59.468 9V8.14453C59.3977 8.15625 59.1633 8.17383 59.0461 8.17383C58.5246 8.17383 58.2902 7.92188 58.2902 7.36523V3.74414H59.4738V2.90625H58.2902V1.43555H57.2707ZM61.0118 9H62.0313V3.74414H63.2735V2.90625H62.0255V2.23242C62.0255 1.62891 62.2891 1.33594 62.8399 1.33594C63.0098 1.33594 63.1798 1.35352 63.3028 1.37109V0.544922C63.1563 0.521484 62.9102 0.498047 62.6817 0.498047C61.5567 0.498047 61.0118 1.05469 61.0118 2.22656V2.90625H60.1622V3.74414H61.0118V9ZM66.6806 9.10547C68.3623 9.10547 69.499 7.89258 69.499 5.95312C69.499 4.00781 68.3623 2.80078 66.6806 2.80078C64.9931 2.80078 63.8564 4.00781 63.8564 5.95312C63.8564 7.89258 64.9931 9.10547 66.6806 9.10547ZM66.6806 8.20898C65.6025 8.20898 64.8935 7.38867 64.8935 5.95312C64.8935 4.51758 65.6025 3.69727 66.6806 3.69727C67.7587 3.69727 68.4619 4.51758 68.4619 5.95312C68.4619 7.38867 67.7587 8.20898 66.6806 8.20898ZM70.703 9H71.7225V0.544922H70.703V9ZM73.2722 9H74.2917V2.90625H73.2722V9ZM73.782 1.88086C74.1335 1.88086 74.4206 1.59375 74.4206 1.24805C74.4206 0.896484 74.1335 0.615234 73.782 0.615234C73.4362 0.615234 73.1491 0.896484 73.1491 1.24805C73.1491 1.59375 73.4362 1.88086 73.782 1.88086ZM78.3141 9.10547C79.9957 9.10547 81.1324 7.89258 81.1324 5.95312C81.1324 4.00781 79.9957 2.80078 78.3141 2.80078C76.6266 2.80078 75.4898 4.00781 75.4898 5.95312C75.4898 7.89258 76.6266 9.10547 78.3141 9.10547ZM78.3141 8.20898C77.2359 8.20898 76.527 7.38867 76.527 5.95312C76.527 4.51758 77.2359 3.69727 78.3141 3.69727C79.3922 3.69727 80.0953 4.51758 80.0953 5.95312C80.0953 7.38867 79.3922 8.20898 78.3141 8.20898Z" fill="#111827"/>
</svg>
